<svg width="401" height="80" viewBox="0 0 401 80" fill="none" xmlns="http://www.w3.org/2000/svg">
<path d="M153.695 54.25V61H130.82V54.25H153.695ZM133.414 15.5V61H124.82V15.5H133.414ZM167.57 27.1875V61H159.289V27.1875H167.57ZM158.726 18.3438C158.726 17.1146 159.143 16.0938 159.976 15.2812C160.83 14.4688 161.976 14.0625 163.414 14.0625C164.851 14.0625 165.986 14.4688 166.82 15.2812C167.674 16.0938 168.101 17.1146 168.101 18.3438C168.101 19.5521 167.674 20.5625 166.82 21.375C165.986 22.1875 164.851 22.5938 163.414 22.5938C161.976 22.5938 160.83 22.1875 159.976 21.375C159.143 20.5625 158.726 19.5521 158.726 18.3438ZM186.664 54.75L194.539 27.1875H203.164L191.57 61H186.32L186.664 54.75ZM180.914 27.1875L188.882 54.8125L189.164 61H183.882L172.257 27.1875H180.914ZM222.257 61.625C219.695 61.625 217.393 61.2083 215.351 60.375C213.309 59.5417 211.57 58.3854 210.132 56.9062C208.716 55.4062 207.622 53.6667 206.851 51.6875C206.101 49.6875 205.726 47.5417 205.726 45.25V44C205.726 41.3958 206.101 39.0312 206.851 36.9062C207.601 34.7604 208.664 32.9167 210.039 31.375C211.414 29.8333 213.059 28.6458 214.976 27.8125C216.893 26.9792 219.007 26.5625 221.32 26.5625C223.716 26.5625 225.83 26.9688 227.664 27.7812C229.497 28.5729 231.028 29.6979 232.257 31.1562C233.486 32.6146 234.414 34.3646 235.039 36.4062C235.664 38.4271 235.976 40.6667 235.976 43.125V46.5938H209.476V40.9062H227.851V40.2812C227.809 38.9688 227.559 37.7708 227.101 36.6875C226.643 35.5833 225.934 34.7083 224.976 34.0625C224.018 33.3958 222.778 33.0625 221.257 33.0625C220.028 33.0625 218.955 33.3333 218.039 33.875C217.143 34.3958 216.393 35.1458 215.789 36.125C215.205 37.0833 214.768 38.2292 214.476 39.5625C214.184 40.8958 214.039 42.375 214.039 44V45.25C214.039 46.6667 214.226 47.9792 214.601 49.1875C214.997 50.3958 215.57 51.4479 216.32 52.3438C217.091 53.2188 218.007 53.9062 219.07 54.4062C220.153 54.8854 221.382 55.125 222.757 55.125C224.486 55.125 226.049 54.7917 227.445 54.125C228.861 53.4375 230.091 52.4271 231.132 51.0938L235.289 55.4062C234.58 56.4479 233.622 57.4479 232.414 58.4062C231.226 59.3646 229.789 60.1458 228.101 60.75C226.414 61.3333 224.466 61.625 222.257 61.625ZM294.632 15.5V61H286.007L266.664 29.4375V61H258.07V15.5H266.664L286.07 47.0938V15.5H294.632ZM301.289 44.4375V43.7812C301.289 41.3021 301.643 39.0208 302.351 36.9375C303.059 34.8333 304.091 33.0104 305.445 31.4688C306.799 29.9271 308.455 28.7292 310.414 27.875C312.372 27 314.601 26.5625 317.101 26.5625C319.643 26.5625 321.893 27 323.851 27.875C325.83 28.7292 327.497 29.9271 328.851 31.4688C330.205 33.0104 331.236 34.8333 331.945 36.9375C332.653 39.0208 333.007 41.3021 333.007 43.7812V44.4375C333.007 46.8958 332.653 49.1771 331.945 51.2812C331.236 53.3646 330.205 55.1875 328.851 56.75C327.497 58.2917 325.841 59.4896 323.882 60.3438C321.924 61.1979 319.684 61.625 317.164 61.625C314.664 61.625 312.424 61.1979 310.445 60.3438C308.466 59.4896 306.799 58.2917 305.445 56.75C304.091 55.1875 303.059 53.3646 302.351 51.2812C301.643 49.1771 301.289 46.8958 301.289 44.4375ZM309.539 43.7812V44.4375C309.539 45.9167 309.684 47.3021 309.976 48.5938C310.268 49.8854 310.716 51.0208 311.32 52C311.924 52.9792 312.705 53.75 313.664 54.3125C314.643 54.8542 315.809 55.125 317.164 55.125C318.497 55.125 319.643 54.8542 320.601 54.3125C321.559 53.75 322.341 52.9792 322.945 52C323.57 51.0208 324.028 49.8854 324.32 48.5938C324.611 47.3021 324.757 45.9167 324.757 44.4375V43.7812C324.757 42.3229 324.611 40.9583 324.32 39.6875C324.028 38.3958 323.57 37.2604 322.945 36.2812C322.341 35.2812 321.549 34.5 320.57 33.9375C319.611 33.3542 318.455 33.0625 317.101 33.0625C315.768 33.0625 314.622 33.3542 313.664 33.9375C312.705 34.5 311.924 35.2812 311.32 36.2812C310.716 37.2604 310.268 38.3958 309.976 39.6875C309.684 40.9583 309.539 42.3229 309.539 43.7812ZM348.414 52.875L355.82 27.1875H361.07L359.507 36.0625L352.039 61H347.507L348.414 52.875ZM344.32 27.1875L349.882 52.9375L350.382 61H345.164L336.289 27.1875H344.32ZM367.945 52.5625L373.382 27.1875H381.382L372.57 61H367.351L367.945 52.5625ZM361.882 27.1875L369.226 52.625L370.195 61H365.664L358.132 36.0625L356.601 27.1875H361.882ZM395.664 15.5L394.757 47.3438H387.789L386.882 15.5H395.664ZM386.632 57.1562C386.632 55.9271 387.049 54.8958 387.882 54.0625C388.736 53.2083 389.882 52.7812 391.32 52.7812C392.757 52.7812 393.893 53.2083 394.726 54.0625C395.58 54.8958 396.007 55.9271 396.007 57.1562C396.007 58.3646 395.58 59.3854 394.726 60.2188C393.893 61.0521 392.757 61.4688 391.32 61.4688C389.882 61.4688 388.736 61.0521 387.882 60.2188C387.049 59.3854 386.632 58.3646 386.632 57.1562Z" fill="#135CC9"/>
<path d="M42.3656 80C40.8001 80 39.2403 80 37.6748 80C37.4749 79.9543 37.2806 79.88 37.0749 79.8686C32.1899 79.5429 27.5048 78.3831 23.1168 76.2348C10.7985 70.2013 3.26812 60.437 0.628485 46.9474C0.331383 45.4276 0.205686 43.8735 0 42.3309C0 40.7654 0 39.2056 0 37.6401C0.171405 36.2745 0.291389 34.9033 0.519929 33.5492C2.06257 24.5219 6.11345 16.8029 12.8782 10.6209C21.6999 2.56488 32.1613 -0.903215 44.0454 0.199491C52.5642 0.987954 60.0832 4.31321 66.4823 10.0039C74.3098 16.9629 78.7721 25.7103 79.8462 36.126C80.5261 42.6908 79.6748 49.1071 77.0295 55.1577C71.036 68.8701 60.6146 77.029 45.8337 79.5601C44.6853 79.7543 43.5198 79.8572 42.3656 80ZM39.966 73.3038C58.3292 73.3552 73.2528 58.5001 73.3385 40.0855C73.4185 21.7108 58.5006 6.72431 40.0745 6.67289C21.7285 6.62147 6.79907 21.4823 6.70194 39.8969C6.5991 58.2544 21.5342 73.2523 39.966 73.3038Z" fill="#135CC9"/>
<path d="M33.4349 39.9883C33.4349 36.1317 33.4463 32.2751 33.4292 28.4242C33.4234 27.47 33.6234 26.6587 34.5376 26.1959C35.4575 25.7274 36.2345 26.0702 36.9944 26.6244C42.2965 30.4925 47.6101 34.3434 52.9122 38.2057C54.4491 39.3256 54.4491 40.7654 52.9008 41.8909C47.5701 45.7647 42.2337 49.627 36.9087 53.5065C36.1602 54.0493 35.3832 54.3235 34.509 53.8779C33.6406 53.4322 33.4177 52.6437 33.4234 51.7124C33.4463 47.8044 33.4349 43.8964 33.4349 39.9883Z" fill="#135CC9"/>
</svg>
