<svg width="52" height="52" viewBox="0 0 52 52" fill="none" xmlns="http://www.w3.org/2000/svg">
<path d="M0 45.1933C0 32.3976 0 19.601 0 6.80534C0.0325614 6.71376 0.0773347 6.62422 0.096668 6.52959C0.748915 3.28158 2.68429 1.20477 5.83664 0.240139C6.15412 0.143472 6.48176 0.0793685 6.80432 0C19.6 0 32.3966 0 45.1922 0C45.2838 0.0325614 45.3734 0.0803842 45.468 0.0966649C49.2034 0.718385 51.9894 3.94604 51.9925 7.7191C52.0027 19.9012 52.0037 32.0832 51.9925 44.2653C51.9884 48.5115 48.5135 51.9874 44.2663 51.9915C32.0842 52.0037 19.9022 52.0016 7.72012 51.9925C4.21874 51.9894 1.12439 49.5565 0.239127 46.163C0.154671 45.8414 0.0793685 45.5168 0 45.1933ZM25.9708 45.8017C29.9637 45.8017 33.9575 45.8038 37.9504 45.8007C42.4815 45.7977 45.7997 42.4815 45.8007 37.9534C45.8028 29.984 45.8028 22.0136 45.8007 14.0442C45.7997 9.51099 42.4856 6.19583 37.9534 6.19481C29.984 6.19278 22.0136 6.19278 14.0442 6.19481C9.50896 6.19583 6.19583 9.50794 6.19482 14.0411C6.19278 22.0105 6.19278 29.981 6.19482 37.9504C6.19583 42.4815 9.51099 45.7987 14.0411 45.8007C18.0177 45.8038 21.9942 45.8017 25.9708 45.8017Z" fill="#135CC9"/>
<path d="M25.9979 42.7549C22.055 42.7549 18.112 42.7549 14.169 42.7549C11.1601 42.7549 9.241 40.847 9.241 37.8534C9.23998 29.9501 9.23998 22.0468 9.241 14.1435C9.241 11.1489 11.1581 9.24202 14.1679 9.241C22.0539 9.23998 29.9399 9.23998 37.8269 9.241C40.8388 9.241 42.7538 11.1448 42.7538 14.1425C42.7549 22.0967 42.7559 30.0498 42.7528 38.0039C42.7518 40.2598 41.4107 42.0701 39.3339 42.5931C38.8811 42.707 38.3977 42.7457 37.9287 42.7477C33.9521 42.76 29.9755 42.7549 25.9979 42.7549ZM26.0264 15.3351C20.1521 15.3229 15.3524 20.0921 15.3351 25.9552C15.3178 31.8305 20.0809 36.6364 25.943 36.6608C31.8386 36.6852 36.6526 31.9028 36.6608 26.0132C36.6679 20.143 31.8926 15.3473 26.0264 15.3351ZM36.6557 18.3796C38.3245 18.3816 39.6992 17.0181 39.7063 15.3514C39.7134 13.6785 38.3581 12.3018 36.6913 12.2885C34.9971 12.2753 33.6122 13.649 33.6163 15.3402C33.6194 17.011 34.9869 18.3786 36.6557 18.3796Z" fill="#135CC9"/>
<path d="M25.9707 33.6145C21.7835 33.6054 18.3727 30.1691 18.3819 25.9697C18.391 21.7805 21.8242 18.3727 26.0257 18.3819C30.2159 18.391 33.6247 21.8242 33.6145 26.0246C33.6033 30.2159 30.1711 33.6237 25.9707 33.6145Z" fill="#135CC9"/>
</svg>
