<svg width="52" height="52" viewBox="0 0 52 52" fill="none" xmlns="http://www.w3.org/2000/svg">
<path d="M0 45.7017C0 32.5668 0 19.4318 0 6.29681C0.033919 6.16928 0.0746191 6.0431 0.0990407 5.91421C0.550841 3.52628 1.85197 1.7611 4.04042 0.712309C4.74458 0.374471 5.54236 0.232009 6.29671 0C19.4315 0 32.5663 0 45.7011 0C45.7797 0.0271356 45.8571 0.0664788 45.9385 0.0814034C49.5746 0.708235 51.9951 3.55477 51.9964 7.23299C52.0005 19.7547 52.0018 32.2764 51.9964 44.7981C51.9951 48.8834 48.8813 51.9863 44.7934 51.9972C42.9835 52.0026 41.1722 51.9985 39.3623 51.9985C28.6344 51.9985 17.9065 52.0012 7.17861 51.9972C3.88575 51.9958 1.1139 49.8969 0.253713 46.7777C0.15467 46.4222 0.0827623 46.0613 0 45.7017ZM18.2701 33.7255C18.1073 33.8408 17.992 33.9317 17.8685 34.0077C16.703 34.7132 15.4698 35.2857 14.1306 35.5245C13.0045 35.7253 11.8526 35.7783 10.7103 35.88C10.3412 35.9126 9.91383 35.8298 9.79308 36.3115C9.68047 36.7633 10.0563 36.9152 10.3697 37.0875C14.189 39.1878 18.2606 39.9069 22.571 39.314C27.2179 38.675 31.1186 36.6276 34.1632 33.0457C37.2539 29.4095 38.8426 25.1805 38.9444 20.4046C38.9566 19.8334 39.19 19.4399 39.5875 19.0424C40.4328 18.1958 41.2251 17.2935 42.012 16.3912C42.1396 16.2447 42.126 15.9761 42.1776 15.7644C41.9483 15.7522 41.7013 15.6803 41.4937 15.74C40.8805 15.9177 40.2822 16.1497 39.7598 16.3315C40.2482 15.4754 40.7557 14.6247 41.2129 13.7482C41.3079 13.5664 41.2156 13.2883 41.2088 13.0536C40.9904 13.0889 40.757 13.0848 40.5562 13.1648C39.6499 13.5312 38.7545 13.926 37.8508 14.2991C37.2647 14.542 36.7804 14.4144 36.2702 14.0006C33.3695 11.652 29.0102 12.0699 26.5816 14.9042C25.3442 16.3492 24.8327 18.0424 24.9426 19.9297C24.9779 20.5416 24.9399 20.6081 24.3579 20.5267C23.6062 20.4209 22.8478 20.3245 22.1111 20.1482C18.1697 19.2066 14.8877 17.1795 12.2624 14.0915C11.7997 13.5474 11.6098 13.5637 11.2869 14.1987C10.5637 15.6179 10.3548 17.1131 10.6343 18.6815C10.8812 20.0695 11.5297 21.2526 12.4496 22.3312C12.0073 22.2037 11.5867 22.0449 11.1783 21.8618C10.6533 21.6257 10.447 21.7397 10.4606 22.3149C10.5081 24.2511 11.2258 25.9063 12.6314 27.2346C13.1361 27.7122 13.7331 28.0921 14.3423 28.5588C14.0112 28.5263 13.729 28.5086 13.4495 28.4693C12.8512 28.3852 12.6748 28.5792 12.8824 29.1382C13.6259 31.1367 14.9962 32.5274 16.9798 33.3076C17.3801 33.4704 17.802 33.5776 18.2701 33.7255Z" fill="#135CC9"/>
</svg>
