<svg width="356" height="80" viewBox="0 0 356 80" fill="none" xmlns="http://www.w3.org/2000/svg">
<path d="M35.9622 79.9959C34.3403 79.7916 32.7039 79.6637 31.0985 79.3665C21.786 77.6476 14.1572 73.0501 8.23082 65.6958C3.87477 60.2894 1.25619 54.0928 0.337933 47.2007C-2.10938 28.852 8.94892 11.4773 26.598 5.95748C29.6912 4.9897 32.8628 4.43462 36.1066 4.31907C36.5482 4.30256 36.9898 4.26954 37.4314 4.23653C37.4768 4.2324 37.5201 4.187 37.613 4.13335C37.613 3.30795 37.6047 2.45366 37.6171 1.59937C37.6213 1.2362 37.6192 0.862703 37.7017 0.513972C37.8111 0.0517476 38.133 -0.133967 38.587 0.103335C38.8614 0.24778 39.1214 0.425241 39.3628 0.621274C41.4821 2.34842 43.5992 4.07764 45.7102 5.81304C46.8678 6.76638 46.8843 7.69289 45.7514 8.65861C43.6714 10.4332 41.5811 12.1954 39.497 13.9639C39.3979 14.0485 39.3092 14.164 39.1936 14.2053C38.847 14.3312 38.4033 14.6077 38.1598 14.4901C37.9081 14.3683 37.7409 13.8607 37.7224 13.5099C37.6666 12.4988 37.7017 11.4835 37.7017 10.3032C36.2201 10.4291 34.7963 10.4559 33.4014 10.6808C22.8734 12.3708 14.9681 17.8804 9.83003 27.2136C6.5697 33.1379 5.47192 39.5368 6.37367 46.237C7.57669 55.1782 11.8667 62.3674 19.089 67.7222C25.3703 72.3795 32.4955 74.3501 40.3059 73.7909C44.891 73.4608 49.1872 72.1546 53.2089 69.9446C54.4326 69.2719 55.6274 69.146 56.7994 69.99C58.6194 71.3003 58.4543 74.0716 56.397 75.1136C54.2221 76.2135 51.9873 77.2267 49.703 78.0706C46.8389 79.1271 43.8365 79.6678 40.7825 79.8679C40.5803 79.8803 40.3801 79.9546 40.18 80C38.7768 79.9959 37.3695 79.9959 35.9622 79.9959Z" fill="#135CC9"/>
<path d="M21.142 53.1003C21.6641 51.5775 22.2088 50.1186 22.6607 48.6329C23.3995 46.2041 24.9595 44.7824 27.477 44.316C29.5714 43.9281 31.6411 43.3998 33.7211 42.9335C34.9241 42.6632 35.3698 41.3611 34.5878 40.4222C32.939 38.4412 31.3109 36.4417 29.6436 34.4773C28.6181 33.268 28.4014 31.9392 28.8863 30.4679C29.526 28.5179 30.1781 26.5699 30.824 24.6199C30.9024 24.3805 30.9684 24.1371 31.0386 23.908C29.6766 23.2725 29.6766 23.2725 30.1636 21.8301C30.372 21.2151 30.5784 20.5982 30.793 19.9853C31.0943 19.1269 31.3171 19.0113 32.1921 19.3064C35.5164 20.4289 38.8407 21.5556 42.1629 22.6844C47.0101 24.3331 51.8572 25.986 56.7044 27.6368C57.8104 28.0123 57.895 28.1836 57.5277 29.2772C57.2966 29.9664 57.0634 30.6577 56.8241 31.3449C56.4856 32.3188 56.3371 32.3931 55.3383 32.098C55.2434 32.0712 55.1444 32.0547 54.9855 32.0196C54.3726 33.8107 53.8031 35.5874 53.1531 37.3352C52.8559 38.1297 52.4825 38.922 51.9975 39.6133C51.1928 40.7606 49.9464 41.2476 48.6196 41.5406C46.4364 42.0235 44.2532 42.5063 42.07 42.9933C40.9413 43.2451 40.5121 44.5698 41.2632 45.4778C42.8934 47.4422 44.5008 49.4232 46.162 51.3587C47.2597 52.6381 47.4537 54.031 46.9358 55.5827C46.3848 57.2335 45.838 58.8885 45.2891 60.5413C45.2169 60.758 45.1467 60.9747 45.0662 61.2223C45.3242 61.3296 45.5347 61.4224 45.7493 61.505C46.2259 61.6886 46.3827 62.0415 46.2321 62.5037C45.9205 63.4674 45.5883 64.4248 45.2478 65.3802C45.0146 66.0385 44.5442 66.0178 43.9788 65.8239C41.0032 64.8024 38.0214 63.8017 35.0438 62.7885C29.852 61.0221 24.6603 59.2558 19.4664 57.4873C18.3006 57.0912 18.2304 56.9488 18.6142 55.8015C18.8123 55.2092 19.0166 54.6211 19.2168 54.0289C19.6687 52.6959 19.7038 52.6753 21.142 53.1003ZM42.6767 60.4505C43.2958 58.6078 43.8653 56.8291 44.4946 55.071C44.8289 54.1362 44.668 53.4037 44.0118 52.6464C42.1732 50.521 40.4089 48.3316 38.5889 46.1876C38.1122 45.6263 38.007 45.0671 38.2629 44.3882C38.5476 43.6351 38.8262 42.8757 39.0387 42.0998C39.2595 41.2889 39.7672 40.9278 40.5657 40.7585C43.11 40.2241 45.6378 39.6195 48.1801 39.0747C49.4739 38.7982 50.3013 38.0739 50.7099 36.8152C51.2547 35.1355 51.8407 33.4682 52.4061 31.7926C52.4701 31.6028 52.5113 31.4047 52.5753 31.1591C46.1908 28.9883 39.8559 26.8361 33.4549 24.6591C32.7306 26.8217 32.0414 28.9161 31.3233 31.0003C31.0406 31.8195 31.1851 32.4819 31.7587 33.1504C33.589 35.2841 35.3616 37.4673 37.1857 39.6071C37.714 40.2282 37.8853 40.8328 37.5695 41.6066C37.2848 42.302 37.0537 43.0243 36.8535 43.7486C36.6265 44.5698 36.1313 44.9887 35.2873 45.1579C33.2733 45.5624 31.2738 46.0287 29.2722 46.4868C25.7581 47.2916 25.7581 47.2957 24.5922 50.7273C24.2352 51.7776 23.8906 52.83 23.5233 53.9381C29.9305 56.1172 36.2489 58.2653 42.6767 60.4505Z" fill="#135CC9"/>
<path d="M59.7031 66.7896C59.6949 64.691 62.2413 61.9589 64.0489 61.8991C65.2313 61.8599 66.1722 62.3696 66.7748 63.3992C67.3959 64.4578 67.4124 65.5742 66.6964 66.5605C66.0897 67.3962 65.3757 68.1804 64.5978 68.8551C63.6547 69.6723 62.5178 69.7631 61.387 69.2018C60.2851 68.657 59.7547 67.7243 59.7031 66.7896Z" fill="#135CC9"/>
<path d="M66.4272 56.453C66.7181 55.2479 67.1535 53.7952 68.1749 52.6459C69.0932 51.6141 70.6264 51.4841 71.8273 52.1857C73.0118 52.877 73.6267 54.2967 73.1831 55.6049C72.8508 56.581 72.4381 57.5508 71.9202 58.4402C71.2454 59.5978 69.7803 60.0456 68.5092 59.6329C67.2546 59.2223 66.421 58.0667 66.4272 56.453Z" fill="#135CC9"/>
<path d="M69.5162 44.4504C69.5719 43.8644 69.5946 43.2639 69.6916 42.6758C69.9496 41.1303 71.3259 40.0531 72.8612 40.1604C74.4088 40.2677 75.6428 41.5182 75.6655 43.0741C75.6778 43.9304 75.6366 44.793 75.5313 45.6411C75.325 47.3084 73.9569 48.4516 72.37 48.3484C70.7048 48.2411 69.5204 46.9493 69.5142 45.2408C69.5162 44.9828 69.5162 44.7228 69.5162 44.4504Z" fill="#135CC9"/>
<path d="M61.6051 14.1822C61.5968 16.485 59.0711 17.9439 57.0695 16.7718C56.3101 16.3282 55.5838 15.8103 54.9008 15.2531C53.6647 14.2441 53.4398 12.5541 54.3106 11.252C55.1835 9.94373 56.9106 9.5042 58.3035 10.3048C59.0876 10.7567 59.8284 11.2953 60.5424 11.8566C61.279 12.4344 61.6113 13.2412 61.6051 14.1822Z" fill="#135CC9"/>
<path d="M62.4147 21.0056C62.5034 19.7303 63.2339 18.6367 64.375 18.1724C65.5099 17.7102 66.8553 17.9372 67.6683 18.8699C68.3307 19.6292 68.9312 20.4608 69.4326 21.3337C70.1776 22.6337 69.7463 24.2969 68.5515 25.1512C67.2948 26.0488 65.6007 25.9332 64.5896 24.7859C63.9417 24.0492 63.3783 23.2259 62.8604 22.3902C62.6148 21.9899 62.5591 21.4699 62.4147 21.0056Z" fill="#135CC9"/>
<path d="M74.6049 33.0887C74.6193 34.9706 73.6247 36.1901 72.1617 36.4893C70.7296 36.7803 69.2934 36.0168 68.7796 34.6219C68.4742 33.7965 68.2204 32.9422 68.0388 32.0817C67.7066 30.499 68.6352 29.0112 70.1601 28.5655C71.6891 28.1198 73.2615 28.873 73.8207 30.4041C74.1819 31.3966 74.4171 32.4387 74.6049 33.0887Z" fill="#135CC9"/>
<path d="M127.546 44.7422H132.429C132.273 46.6042 131.752 48.2643 130.867 49.7227C129.981 51.168 128.738 52.3073 127.136 53.1406C125.535 53.974 123.588 54.3906 121.296 54.3906C119.538 54.3906 117.956 54.0781 116.55 53.4531C115.144 52.8151 113.939 51.9167 112.937 50.7578C111.934 49.5859 111.166 48.1732 110.632 46.5195C110.111 44.8659 109.851 43.0169 109.851 40.9727V38.6094C109.851 36.5651 110.118 34.7161 110.652 33.0625C111.199 31.4089 111.98 29.9961 112.995 28.8242C114.011 27.6393 115.229 26.7344 116.648 26.1094C118.08 25.4844 119.688 25.1719 121.472 25.1719C123.738 25.1719 125.652 25.5885 127.214 26.4219C128.777 27.2552 129.988 28.4076 130.847 29.8789C131.719 31.3503 132.253 33.0365 132.449 34.9375H127.566C127.436 33.7135 127.149 32.6654 126.706 31.793C126.277 30.9206 125.639 30.2565 124.792 29.8008C123.946 29.332 122.839 29.0977 121.472 29.0977C120.352 29.0977 119.376 29.306 118.542 29.7227C117.709 30.1393 117.012 30.7513 116.453 31.5586C115.893 32.3659 115.469 33.362 115.183 34.5469C114.91 35.7188 114.773 37.0599 114.773 38.5703V40.9727C114.773 42.4049 114.897 43.707 115.144 44.8789C115.404 46.0378 115.795 47.0339 116.316 47.8672C116.85 48.7005 117.527 49.3451 118.347 49.8008C119.167 50.2565 120.15 50.4844 121.296 50.4844C122.689 50.4844 123.816 50.263 124.675 49.8203C125.548 49.3776 126.205 48.7331 126.648 47.8867C127.104 47.0273 127.403 45.9792 127.546 44.7422ZM135.515 43.668V43.2188C135.515 41.6953 135.736 40.2826 136.179 38.9805C136.622 37.6654 137.26 36.526 138.093 35.5625C138.939 34.5859 139.968 33.8307 141.179 33.2969C142.403 32.75 143.783 32.4766 145.32 32.4766C146.869 32.4766 148.249 32.75 149.46 33.2969C150.684 33.8307 151.719 34.5859 152.566 35.5625C153.412 36.526 154.057 37.6654 154.499 38.9805C154.942 40.2826 155.163 41.6953 155.163 43.2188V43.668C155.163 45.1914 154.942 46.6042 154.499 47.9062C154.057 49.2083 153.412 50.3477 152.566 51.3242C151.719 52.2878 150.691 53.043 149.48 53.5898C148.269 54.1237 146.895 54.3906 145.359 54.3906C143.809 54.3906 142.423 54.1237 141.199 53.5898C139.988 53.043 138.959 52.2878 138.113 51.3242C137.266 50.3477 136.622 49.2083 136.179 47.9062C135.736 46.6042 135.515 45.1914 135.515 43.668ZM140.222 43.2188V43.668C140.222 44.6185 140.32 45.5169 140.515 46.3633C140.71 47.2096 141.016 47.9518 141.433 48.5898C141.85 49.2279 142.384 49.7292 143.035 50.0938C143.686 50.4583 144.46 50.6406 145.359 50.6406C146.231 50.6406 146.986 50.4583 147.624 50.0938C148.275 49.7292 148.809 49.2279 149.226 48.5898C149.643 47.9518 149.949 47.2096 150.144 46.3633C150.352 45.5169 150.456 44.6185 150.456 43.668V43.2188C150.456 42.2812 150.352 41.3958 150.144 40.5625C149.949 39.7161 149.636 38.9674 149.206 38.3164C148.79 37.6654 148.256 37.1576 147.605 36.793C146.967 36.4154 146.205 36.2266 145.32 36.2266C144.434 36.2266 143.666 36.4154 143.015 36.793C142.377 37.1576 141.85 37.6654 141.433 38.3164C141.016 38.9674 140.71 39.7161 140.515 40.5625C140.32 41.3958 140.222 42.2812 140.222 43.2188ZM163.816 37.1641V54H159.109V32.8672H163.542L163.816 37.1641ZM163.054 42.6523L161.453 42.6328C161.453 41.1745 161.635 39.8268 161.999 38.5898C162.364 37.3529 162.898 36.2786 163.601 35.3672C164.304 34.4427 165.176 33.7331 166.218 33.2383C167.273 32.7305 168.49 32.4766 169.87 32.4766C170.834 32.4766 171.713 32.6198 172.507 32.9062C173.314 33.1797 174.011 33.6159 174.597 34.2148C175.196 34.8138 175.652 35.582 175.964 36.5195C176.29 37.457 176.453 38.5898 176.453 39.918V54H171.745V40.3281C171.745 39.2995 171.589 38.4922 171.277 37.9062C170.977 37.3203 170.541 36.9036 169.968 36.6562C169.408 36.3958 168.738 36.2656 167.956 36.2656C167.071 36.2656 166.316 36.4349 165.691 36.7734C165.079 37.112 164.578 37.5742 164.187 38.1602C163.796 38.7461 163.51 39.4232 163.328 40.1914C163.145 40.9596 163.054 41.7799 163.054 42.6523ZM176.16 41.4023L173.953 41.8906C173.953 40.6146 174.128 39.4102 174.48 38.2773C174.844 37.1315 175.372 36.1289 176.062 35.2695C176.765 34.3971 177.631 33.7135 178.66 33.2188C179.688 32.724 180.867 32.4766 182.195 32.4766C183.275 32.4766 184.239 32.6263 185.085 32.9258C185.945 33.2122 186.674 33.668 187.273 34.293C187.872 34.918 188.328 35.7318 188.64 36.7344C188.953 37.724 189.109 38.9219 189.109 40.3281V54H184.382V40.3086C184.382 39.2409 184.226 38.4141 183.913 37.8281C183.614 37.2422 183.184 36.8385 182.624 36.6172C182.064 36.3828 181.394 36.2656 180.613 36.2656C179.884 36.2656 179.239 36.4023 178.679 36.6758C178.132 36.9362 177.67 37.3073 177.292 37.7891C176.915 38.2578 176.628 38.7982 176.433 39.4102C176.251 40.0221 176.16 40.6862 176.16 41.4023ZM198.992 32.8672V54H194.265V32.8672H198.992ZM193.953 27.3203C193.953 26.6042 194.187 26.0117 194.656 25.543C195.137 25.0612 195.801 24.8203 196.648 24.8203C197.481 24.8203 198.139 25.0612 198.62 25.543C199.102 26.0117 199.343 26.6042 199.343 27.3203C199.343 28.0234 199.102 28.6094 198.62 29.0781C198.139 29.5469 197.481 29.7812 196.648 29.7812C195.801 29.7812 195.137 29.5469 194.656 29.0781C194.187 28.6094 193.953 28.0234 193.953 27.3203ZM208.816 37.3789V54H204.109V32.8672H208.542L208.816 37.3789ZM207.976 42.6523L206.453 42.6328C206.466 41.1354 206.674 39.7617 207.078 38.5117C207.494 37.2617 208.067 36.1875 208.796 35.2891C209.538 34.3906 210.424 33.7005 211.453 33.2188C212.481 32.724 213.627 32.4766 214.89 32.4766C215.906 32.4766 216.824 32.6198 217.644 32.9062C218.477 33.1797 219.187 33.6289 219.773 34.2539C220.372 34.8789 220.828 35.6927 221.14 36.6953C221.453 37.6849 221.609 38.9023 221.609 40.3477V54H216.882V40.3281C216.882 39.3125 216.732 38.5117 216.433 37.9258C216.147 37.3268 215.723 36.9036 215.163 36.6562C214.617 36.3958 213.933 36.2656 213.113 36.2656C212.305 36.2656 211.583 36.4349 210.945 36.7734C210.307 37.112 209.766 37.5742 209.324 38.1602C208.894 38.7461 208.562 39.4232 208.328 40.1914C208.093 40.9596 207.976 41.7799 207.976 42.6523ZM239.949 32.8672H244.226V53.4141C244.226 55.3151 243.822 56.9297 243.015 58.2578C242.208 59.5859 241.081 60.5951 239.636 61.2852C238.191 61.9883 236.518 62.3398 234.617 62.3398C233.809 62.3398 232.911 62.2227 231.921 61.9883C230.945 61.7539 229.994 61.3763 229.07 60.8555C228.158 60.3477 227.397 59.6771 226.785 58.8438L228.992 56.0703C229.747 56.9688 230.58 57.6263 231.492 58.043C232.403 58.4596 233.36 58.668 234.363 58.668C235.443 58.668 236.361 58.4661 237.117 58.0625C237.885 57.6719 238.477 57.0924 238.894 56.3242C239.311 55.556 239.519 54.6185 239.519 53.5117V37.6523L239.949 32.8672ZM225.593 43.668V43.2578C225.593 41.6562 225.788 40.1979 226.179 38.8828C226.57 37.5547 227.13 36.4154 227.859 35.4648C228.588 34.5013 229.473 33.7656 230.515 33.2578C231.557 32.737 232.735 32.4766 234.05 32.4766C235.417 32.4766 236.583 32.724 237.546 33.2188C238.523 33.7135 239.337 34.4232 239.988 35.3477C240.639 36.2591 241.147 37.3529 241.511 38.6289C241.889 39.8919 242.169 41.2982 242.351 42.8477V44.1562C242.182 45.6667 241.895 47.0469 241.492 48.2969C241.088 49.5469 240.554 50.6276 239.89 51.5391C239.226 52.4505 238.406 53.1536 237.429 53.6484C236.466 54.1432 235.326 54.3906 234.011 54.3906C232.722 54.3906 231.557 54.1237 230.515 53.5898C229.486 53.056 228.601 52.3073 227.859 51.3438C227.13 50.3802 226.57 49.2474 226.179 47.9453C225.788 46.6302 225.593 45.2044 225.593 43.668ZM230.3 43.2578V43.668C230.3 44.6315 230.391 45.5299 230.574 46.3633C230.769 47.1966 231.062 47.9323 231.453 48.5703C231.856 49.1953 232.364 49.6901 232.976 50.0547C233.601 50.4062 234.337 50.582 235.183 50.582C236.29 50.582 237.195 50.3477 237.898 49.8789C238.614 49.4102 239.161 48.7786 239.538 47.9844C239.929 47.1771 240.203 46.2786 240.359 45.2891V41.7539C240.281 40.9857 240.118 40.2695 239.87 39.6055C239.636 38.9414 239.317 38.362 238.913 37.8672C238.51 37.3594 238.002 36.9688 237.39 36.6953C236.778 36.4089 236.055 36.2656 235.222 36.2656C234.376 36.2656 233.64 36.4479 233.015 36.8125C232.39 37.1771 231.876 37.6784 231.472 38.3164C231.081 38.9544 230.788 39.6966 230.593 40.543C230.398 41.3893 230.3 42.2943 230.3 43.2578ZM270.925 48.2773C270.925 47.8086 270.808 47.3854 270.574 47.0078C270.339 46.6172 269.89 46.2656 269.226 45.9531C268.575 45.6406 267.611 45.3542 266.335 45.0938C265.216 44.8464 264.187 44.5534 263.249 44.2148C262.325 43.8633 261.531 43.4401 260.867 42.9453C260.203 42.4505 259.688 41.8646 259.324 41.1875C258.959 40.5104 258.777 39.7292 258.777 38.8438C258.777 37.9844 258.966 37.1706 259.343 36.4023C259.721 35.6341 260.261 34.957 260.964 34.3711C261.667 33.7852 262.52 33.3229 263.523 32.9844C264.538 32.6458 265.671 32.4766 266.921 32.4766C268.692 32.4766 270.209 32.776 271.472 33.375C272.748 33.9609 273.725 34.7617 274.402 35.7773C275.079 36.7799 275.417 37.9128 275.417 39.1758H270.71C270.71 38.6159 270.567 38.0951 270.281 37.6133C270.007 37.1185 269.591 36.7214 269.031 36.4219C268.471 36.1094 267.768 35.9531 266.921 35.9531C266.114 35.9531 265.443 36.0833 264.91 36.3438C264.389 36.5911 263.998 36.9167 263.738 37.3203C263.49 37.724 263.367 38.1667 263.367 38.6484C263.367 39 263.432 39.319 263.562 39.6055C263.705 39.8789 263.939 40.1328 264.265 40.3672C264.591 40.5885 265.033 40.7969 265.593 40.9922C266.166 41.1875 266.882 41.3763 267.742 41.5586C269.356 41.8971 270.743 42.3333 271.902 42.8672C273.074 43.388 273.972 44.0651 274.597 44.8984C275.222 45.7188 275.535 46.7604 275.535 48.0234C275.535 48.9609 275.333 49.8203 274.929 50.6016C274.538 51.3698 273.966 52.0404 273.21 52.6133C272.455 53.1732 271.55 53.6094 270.495 53.9219C269.454 54.2344 268.282 54.3906 266.98 54.3906C265.066 54.3906 263.445 54.0521 262.117 53.375C260.788 52.6849 259.779 51.806 259.089 50.7383C258.412 49.6576 258.074 48.5378 258.074 47.3789H262.624C262.676 48.2513 262.917 48.9479 263.347 49.4688C263.79 49.9766 264.337 50.3477 264.988 50.582C265.652 50.8034 266.335 50.9141 267.038 50.9141C267.885 50.9141 268.594 50.8034 269.167 50.582C269.74 50.3477 270.176 50.0352 270.476 49.6445C270.775 49.2409 270.925 48.7852 270.925 48.2773ZM278.757 43.668V43.2188C278.757 41.6953 278.979 40.2826 279.421 38.9805C279.864 37.6654 280.502 36.526 281.335 35.5625C282.182 34.5859 283.21 33.8307 284.421 33.2969C285.645 32.75 287.025 32.4766 288.562 32.4766C290.111 32.4766 291.492 32.75 292.703 33.2969C293.926 33.8307 294.962 34.5859 295.808 35.5625C296.654 36.526 297.299 37.6654 297.742 38.9805C298.184 40.2826 298.406 41.6953 298.406 43.2188V43.668C298.406 45.1914 298.184 46.6042 297.742 47.9062C297.299 49.2083 296.654 50.3477 295.808 51.3242C294.962 52.2878 293.933 53.043 292.722 53.5898C291.511 54.1237 290.137 54.3906 288.601 54.3906C287.051 54.3906 285.665 54.1237 284.441 53.5898C283.23 53.043 282.201 52.2878 281.355 51.3242C280.509 50.3477 279.864 49.2083 279.421 47.9062C278.979 46.6042 278.757 45.1914 278.757 43.668ZM283.464 43.2188V43.668C283.464 44.6185 283.562 45.5169 283.757 46.3633C283.953 47.2096 284.259 47.9518 284.675 48.5898C285.092 49.2279 285.626 49.7292 286.277 50.0938C286.928 50.4583 287.703 50.6406 288.601 50.6406C289.473 50.6406 290.229 50.4583 290.867 50.0938C291.518 49.7292 292.051 49.2279 292.468 48.5898C292.885 47.9518 293.191 47.2096 293.386 46.3633C293.594 45.5169 293.699 44.6185 293.699 43.668V43.2188C293.699 42.2812 293.594 41.3958 293.386 40.5625C293.191 39.7161 292.878 38.9674 292.449 38.3164C292.032 37.6654 291.498 37.1576 290.847 36.793C290.209 36.4154 289.447 36.2266 288.562 36.2266C287.676 36.2266 286.908 36.4154 286.257 36.793C285.619 37.1576 285.092 37.6654 284.675 38.3164C284.259 38.9674 283.953 39.7161 283.757 40.5625C283.562 41.3958 283.464 42.2812 283.464 43.2188ZM301.453 43.668V43.2188C301.453 41.6953 301.674 40.2826 302.117 38.9805C302.559 37.6654 303.197 36.526 304.031 35.5625C304.877 34.5859 305.906 33.8307 307.117 33.2969C308.341 32.75 309.721 32.4766 311.257 32.4766C312.807 32.4766 314.187 32.75 315.398 33.2969C316.622 33.8307 317.657 34.5859 318.503 35.5625C319.35 36.526 319.994 37.6654 320.437 38.9805C320.88 40.2826 321.101 41.6953 321.101 43.2188V43.668C321.101 45.1914 320.88 46.6042 320.437 47.9062C319.994 49.2083 319.35 50.3477 318.503 51.3242C317.657 52.2878 316.628 53.043 315.417 53.5898C314.206 54.1237 312.833 54.3906 311.296 54.3906C309.747 54.3906 308.36 54.1237 307.136 53.5898C305.925 53.043 304.897 52.2878 304.05 51.3242C303.204 50.3477 302.559 49.2083 302.117 47.9062C301.674 46.6042 301.453 45.1914 301.453 43.668ZM306.16 43.2188V43.668C306.16 44.6185 306.257 45.5169 306.453 46.3633C306.648 47.2096 306.954 47.9518 307.37 48.5898C307.787 49.2279 308.321 49.7292 308.972 50.0938C309.623 50.4583 310.398 50.6406 311.296 50.6406C312.169 50.6406 312.924 50.4583 313.562 50.0938C314.213 49.7292 314.747 49.2279 315.163 48.5898C315.58 47.9518 315.886 47.2096 316.081 46.3633C316.29 45.5169 316.394 44.6185 316.394 43.668V43.2188C316.394 42.2812 316.29 41.3958 316.081 40.5625C315.886 39.7161 315.574 38.9674 315.144 38.3164C314.727 37.6654 314.193 37.1576 313.542 36.793C312.904 36.4154 312.143 36.2266 311.257 36.2266C310.372 36.2266 309.604 36.4154 308.953 36.793C308.314 37.1576 307.787 37.6654 307.37 38.3164C306.954 38.9674 306.648 39.7161 306.453 40.5625C306.257 41.3958 306.16 42.2812 306.16 43.2188ZM329.714 37.3789V54H325.007V32.8672H329.441L329.714 37.3789ZM328.874 42.6523L327.351 42.6328C327.364 41.1354 327.572 39.7617 327.976 38.5117C328.393 37.2617 328.966 36.1875 329.695 35.2891C330.437 34.3906 331.322 33.7005 332.351 33.2188C333.38 32.724 334.525 32.4766 335.788 32.4766C336.804 32.4766 337.722 32.6198 338.542 32.9062C339.376 33.1797 340.085 33.6289 340.671 34.2539C341.27 34.8789 341.726 35.6927 342.038 36.6953C342.351 37.6849 342.507 38.9023 342.507 40.3477V54H337.781V40.3281C337.781 39.3125 337.631 38.5117 337.331 37.9258C337.045 37.3268 336.622 36.9036 336.062 36.6562C335.515 36.3958 334.831 36.2656 334.011 36.2656C333.204 36.2656 332.481 36.4349 331.843 36.7734C331.205 37.112 330.665 37.5742 330.222 38.1602C329.792 38.7461 329.46 39.4232 329.226 40.1914C328.992 40.9596 328.874 41.7799 328.874 42.6523ZM352.742 25.5625L352.273 45.6211H348.249L347.761 25.5625H352.742ZM347.624 51.7734C347.624 51.0573 347.859 50.4583 348.328 49.9766C348.809 49.4818 349.473 49.2344 350.32 49.2344C351.153 49.2344 351.811 49.4818 352.292 49.9766C352.774 50.4583 353.015 51.0573 353.015 51.7734C353.015 52.4635 352.774 53.056 352.292 53.5508C351.811 54.0326 351.153 54.2734 350.32 54.2734C349.473 54.2734 348.809 54.0326 348.328 53.5508C347.859 53.056 347.624 52.4635 347.624 51.7734Z" fill="black"/>
</svg>
