<svg width="52" height="52" viewBox="0 0 52 52" fill="none" xmlns="http://www.w3.org/2000/svg">
<path fill-rule="evenodd" clip-rule="evenodd" d="M7.54 0C3.37577 0 0 3.37578 0 7.54V44.46C0 48.6242 3.37578 52 7.54 52H44.46C48.6242 52 52 48.6242 52 44.46V7.54C52 3.37577 48.6242 0 44.46 0H7.54ZM40.0566 33.6453C39.1505 35.0714 37.0783 36.3636 33.697 37.6324C33.8791 37.8561 34.0592 38.0762 34.2373 38.294C34.7549 38.9268 35.2565 39.54 35.7458 40.1648C35.9356 40.4053 36.1358 40.4963 36.4452 40.4872C39.3338 40.4014 42.0157 39.6123 44.4168 38.012C46.5683 36.5768 47.542 34.5007 47.2885 31.9202C46.8959 27.9149 45.9963 24.0162 44.4597 20.2982C42.2536 14.9604 38.2158 12.0263 32.4529 11.4816C31.9875 11.4374 31.6924 11.6142 31.4844 12.0133C35.9967 13.6097 39.4183 15.2945 40.0501 16.2253C30.5081 11.8443 20.9427 11.8105 11.3474 16.0758C12.6526 14.9487 14.1177 14.0829 15.6972 13.4433C16.7879 13.0019 17.9001 12.6151 19.0122 12.2284C19.4921 12.0615 19.9719 11.8946 20.45 11.7234C20.2446 11.5622 19.9833 11.4218 19.7363 11.4413C13.8083 11.9067 9.72242 14.9331 7.51112 20.4204C5.98362 24.2125 5.11002 28.1814 4.71872 32.2504C4.49252 34.6047 5.24262 36.6106 7.14972 38.0237C9.56382 39.8112 12.3458 40.612 15.341 40.6692C15.4697 40.6718 15.6478 40.625 15.7219 40.534C16.3125 39.8157 16.8931 39.0884 17.4889 38.342C17.6394 38.1535 17.7908 37.9638 17.9436 37.7728C15.5607 36.9993 13.4326 35.8735 11.8531 33.8884C11.9545 33.8845 12.0403 33.9144 12.1235 33.9482C12.5517 34.125 12.978 34.3072 13.4042 34.4893C14.3473 34.8923 15.2903 35.2952 16.2536 35.6408C19.3307 36.7445 22.4923 37.4972 25.7748 37.6467C30.5302 37.8625 34.9112 36.621 39.0036 34.2524C39.2164 34.1286 39.4297 34.006 39.663 33.8718C39.7876 33.8002 39.9178 33.7253 40.0566 33.6453ZM32.5985 24.2294C34.6122 24.2372 36.3191 26.0299 36.3217 28.1385C36.3243 30.2094 34.6135 31.9865 32.6076 31.9969C30.6017 32.0099 28.8675 30.2172 28.8493 28.1151C28.8324 26.0416 30.5874 24.2216 32.5985 24.2294ZM19.1903 31.9995C17.1753 31.9787 15.484 30.186 15.4879 28.0761C15.4918 26.0091 17.213 24.2333 19.2163 24.2307C21.2144 24.2281 22.959 26.0429 22.959 28.1281C22.959 30.1951 21.1819 32.0203 19.1903 31.9995Z" fill="#135CC9"/>
</svg>
