<svg width="52" height="52" viewBox="0 0 52 52" fill="none" xmlns="http://www.w3.org/2000/svg">
<path d="M52 6.8147C52 19.6091 52 32.4035 52 45.1966C51.9657 45.3237 51.9224 45.4509 51.8995 45.5806C51.4327 48.1616 50.04 50.0738 47.6831 51.213C46.9085 51.5881 46.0284 51.7432 45.1965 52C40.8301 52 36.4623 52 32.0959 52C32.0959 45.8819 32.0959 39.765 32.0959 33.6164C34.7033 33.6164 37.2395 33.6164 39.8138 33.6164C40.3213 30.5701 40.825 27.5479 41.3401 24.4621C38.2265 24.4621 35.1726 24.4621 32.1213 24.4621C32.1213 22.3833 32.1213 20.3592 32.1213 18.2792C35.198 18.2792 38.2506 18.2792 41.2994 18.2792C41.2994 15.2061 41.2994 12.189 41.2994 9.14904C38.2672 9.14904 35.2718 9.14268 32.2777 9.15031C26.9739 9.16557 22.9737 13.1668 22.9572 18.4712C22.9508 20.2817 22.9559 22.0922 22.9559 23.9027C22.9559 24.0832 22.9559 24.2625 22.9559 24.4977C20.8941 24.4977 18.8909 24.4977 16.8876 24.4977C16.8876 27.5593 16.8876 30.565 16.8876 33.6253C18.9138 33.6253 20.917 33.6253 22.9559 33.6253C22.9559 39.7867 22.9559 45.8921 22.9559 51.9987C17.5732 51.9987 12.1904 51.9987 6.80771 51.9987C6.72885 51.9695 6.65254 51.9275 6.57113 51.9148C2.65492 51.2562 0.0106154 48.2073 0.0067997 44.2812C-0.00337559 32.0983 -0.00464937 19.9155 0.0207889 7.73394C0.0220608 6.8859 0.161974 6.00226 0.429075 5.19871C1.50257 1.98073 4.35292 0.0138276 7.83159 0.0125562C19.322 0.00874189 30.8125 0.0112848 42.3042 0.0112848C43.0826 0.0112848 43.8636 -0.0217724 44.6394 0.0252705C47.6195 0.20327 49.8441 1.60947 51.1885 4.27693C51.5803 5.06013 51.7342 5.96538 52 6.8147Z" fill="#135CC9"/>
</svg>
