<svg width="514" height="60" viewBox="0 0 514 60" fill="none" xmlns="http://www.w3.org/2000/svg">
<path d="M153.283 20.8056L163.873 5.46106C165.875 2.57257 168.459 1.12605 171.629 1.12605C174.213 1.12605 176.45 2.04477 178.341 3.87716C180.231 5.71309 181.176 7.90812 181.176 10.4653C181.176 12.3563 180.676 14.0235 179.675 15.47L170.127 29.3529L181.801 44.1544C182.969 45.6287 183.552 47.352 183.552 49.3243C183.552 51.9381 182.635 54.1816 180.801 56.0584C178.965 57.9353 176.743 58.8732 174.131 58.8732C171.266 58.8732 169.085 57.9423 167.584 56.0786L153.283 38.2345V48.0748C153.283 50.8825 152.797 53.0644 151.823 54.621C150.045 57.456 147.459 58.8737 144.068 58.8737C140.983 58.8737 138.592 57.8317 136.897 55.7468C135.312 53.8281 134.52 51.285 134.52 48.1167V11.632C134.52 8.63189 135.327 6.15755 136.939 4.21253C138.634 2.15538 140.969 1.12655 143.943 1.12655C146.779 1.12655 149.141 2.15538 151.031 4.21253C152.087 5.35297 152.754 6.50554 153.032 7.67276C153.2 8.39551 153.283 9.74304 153.283 11.7174V20.8056ZM105.124 0.000246372C112.045 -0.0275325 118.411 2.29377 124.22 6.96364C128.779 10.632 131.058 14.4276 131.058 18.3464C131.058 21.6814 129.668 24.2673 126.889 26.1012C125.304 27.1594 123.58 27.6861 121.719 27.6861C120.19 27.6861 118.73 27.325 117.34 26.6023C116.757 26.2962 115.311 24.8926 113.005 22.391C110.863 20.0561 108.181 18.8873 104.958 18.8873C101.844 18.8873 99.2376 19.9657 97.1396 22.1193C95.0405 24.2739 93.992 26.9073 93.992 30.0211C93.992 33.1071 95.0405 35.7269 97.1396 37.881C99.2371 40.0361 101.831 41.1119 104.916 41.1119C107.472 41.1119 109.849 40.2508 112.045 38.527C113.406 37.2214 114.756 35.9152 116.09 34.6071C117.535 33.3561 119.37 32.7303 121.594 32.7303C124.15 32.7303 126.367 33.6273 128.243 35.4213C130.119 37.2123 131.057 39.3881 131.057 41.9453C131.057 45.4196 129.015 48.9364 124.928 52.4931C119.202 57.4969 112.586 59.9995 105.081 59.9995C100.439 59.9995 96.0617 59.0121 91.9479 57.0393C86.7498 54.5367 82.6153 50.8618 79.5439 46.0101C76.4716 41.1609 74.9367 35.8582 74.9367 30.1039C74.9367 21.4884 78.1323 14.1503 84.527 8.09045C90.1696 2.75136 97.0345 0.0563091 105.124 0.000246372ZM71.3593 12.7598V48.0748C71.3593 51.133 70.5673 53.6472 68.9824 55.6205C67.2869 57.7893 64.9383 58.8732 61.9362 58.8732C59.1846 58.8732 56.8633 57.859 54.9733 55.8296C53.3889 54.1336 52.5975 51.5487 52.5975 48.0748V12.7598C52.5975 8.81169 53.3889 5.94896 54.9733 4.16909C56.7799 2.13972 59.1018 1.12605 61.9362 1.12605C64.7717 1.12605 67.0919 2.12709 68.8996 4.12919C70.5396 5.96209 71.3593 8.83998 71.3593 12.7598ZM18.7618 20.8056L29.3521 5.46106C31.3532 2.57257 33.9382 1.12605 37.108 1.12605C39.6924 1.12605 41.9294 2.04477 43.8199 3.87716C45.7098 5.71309 46.6548 7.90812 46.6548 10.4653C46.6548 12.3563 46.1548 14.0235 45.1537 15.47L35.6059 29.3534L47.2806 44.155C48.4483 45.6293 49.0322 47.3525 49.0322 49.3248C49.0322 51.9386 48.1145 54.1821 46.28 56.0589C44.4456 57.9358 42.2218 58.8737 39.6086 58.8737C36.7458 58.8737 34.5644 57.9429 33.0634 56.0791L18.7623 38.235V48.0748C18.7623 50.8825 18.2754 53.0644 17.3027 54.621C15.5238 57.456 12.9384 58.8737 9.54733 58.8737C6.46287 58.8737 4.07137 57.8317 2.37585 55.7468C0.791444 53.8281 0 51.285 0 48.1167V11.632C0 8.63189 0.805586 6.15755 2.41827 4.21253C4.11329 2.15538 6.44772 1.12655 9.42258 1.12655C12.2575 1.12655 14.6203 2.15538 16.5112 4.21253C17.5668 5.35297 18.2335 6.50554 18.5118 7.67276C18.6785 8.39501 18.7623 9.74304 18.7623 11.7174L18.7618 20.8056Z" fill="#1C2C54"/>
<path d="M507.337 36.5257L511.757 43.6129C512.98 45.5862 513.591 47.6166 513.591 49.7005C513.591 52.342 512.679 54.53 510.86 56.2674C509.04 58.0049 506.809 58.8741 504.168 58.8741C500.776 58.8741 498.206 57.4286 496.456 54.5365L488.617 41.6956V49.4091C488.617 52.0501 487.746 54.2875 486.01 56.1209C484.273 57.9559 482.083 58.8736 479.443 58.8736C476.218 58.8736 473.773 57.7195 472.106 55.4118C470.603 53.3835 469.854 50.7147 469.854 47.406V12.3425C469.854 5.14374 473.732 1.5436 481.487 1.5436H493.41C497.331 1.5436 500.971 2.67698 504.335 4.94221C507.697 7.20846 510.157 10.1475 511.714 13.7612C512.882 16.4851 513.465 19.2221 513.465 21.9737C513.465 27.1163 511.424 31.9675 507.337 36.5257ZM446.972 40.8618H455.499C459.024 40.8618 461.645 41.585 463.364 43.0295C465.39 44.7538 466.403 46.9772 466.403 49.7005C466.403 52.4804 465.386 54.732 463.358 56.4548C461.774 57.7902 459.175 58.4564 455.562 58.4564H440.927C437.48 58.4564 435.117 58.1927 433.838 57.6649C431.336 56.6366 429.682 54.9557 428.877 52.6193C428.376 51.1182 428.127 48.6585 428.127 45.2392V14.3037C428.127 11.7177 428.21 9.9813 428.376 9.09136C428.681 7.28523 429.419 5.75588 430.587 4.50482C431.92 3.08608 433.616 2.18352 435.673 1.7931C436.646 1.62795 438.619 1.5441 441.593 1.5441H452.81C455.867 1.5441 457.646 1.57188 458.146 1.62795C460.149 1.8224 461.786 2.40626 463.065 3.37801C465.345 5.10232 466.485 7.35342 466.485 10.1328C466.485 13.1339 465.486 15.428 463.49 17.0129C461.714 18.4306 459.289 19.1402 456.208 19.1402H446.972V23.0166H454.332C456.492 23.0166 458.282 23.5864 459.695 24.7268C461.191 25.9486 461.941 27.6305 461.941 29.7699C461.941 34.3014 459.181 36.5672 453.665 36.5672H446.971L446.972 40.8618ZM391.352 19.014H386.391C383.638 19.014 381.36 18.2634 379.553 16.7624C377.634 15.1507 376.675 12.9961 376.675 10.2995C376.675 8.68781 377.128 7.13826 378.03 5.65032C378.935 4.1639 380.102 3.10729 381.533 2.48151C382.965 1.85624 386.361 1.5441 391.727 1.5441H410.658C415.298 1.5441 418.301 1.8224 419.662 2.37797C421.163 2.98911 422.381 4.03965 423.311 5.52456C424.242 7.013 424.708 8.57619 424.708 10.2162C424.708 12.8011 423.679 15.0532 421.623 16.9715C420.15 18.3336 417.746 19.014 414.411 19.014H410.115V47.3661C410.115 50.4515 409.587 52.841 408.531 54.5365C406.752 57.3725 404.18 58.7897 400.818 58.7897C397.455 58.7897 394.87 57.4968 393.062 54.9118C391.922 53.3001 391.353 50.8551 391.353 47.5752V19.014H391.352ZM369.055 36.5257L373.475 43.6129C374.697 45.5862 375.309 47.6166 375.309 49.7005C375.309 52.342 374.398 54.53 372.578 56.2674C370.758 58.0049 368.528 58.8741 365.889 58.8741C362.495 58.8741 359.926 57.4286 358.173 54.5365L350.333 41.6956V49.4091C350.333 52.0501 349.466 54.2875 347.729 56.1209C345.991 57.9559 343.802 58.8736 341.161 58.8736C337.936 58.8736 335.491 57.7195 333.824 55.4118C332.322 53.3835 331.572 50.7147 331.572 47.406V12.3425C331.572 5.14374 335.45 1.5436 343.205 1.5436H355.13C359.048 1.5436 362.69 2.67698 366.053 4.94221C369.417 7.20846 371.876 10.1475 373.433 13.7612C374.599 16.4851 375.185 19.2221 375.185 21.9737C375.185 27.1163 373.141 31.9675 369.055 36.5257ZM291.108 51.0773C290.217 53.1895 289.301 54.7598 288.356 55.7881C286.466 57.8447 284.173 58.8741 281.477 58.8741C278.169 58.8741 275.598 57.5397 273.764 54.8699C272.68 53.2865 272.137 51.5086 272.137 49.5343C272.137 47.8944 272.527 46.2393 273.305 44.5725L291.108 6.67208C292.831 2.97648 295.709 1.12641 299.738 1.12641C303.826 1.12641 306.757 3.03002 308.536 6.83926L326.508 45.0306C327.231 46.5605 327.591 48.0752 327.591 49.5757C327.591 51.7991 326.867 53.7739 325.423 55.4962C323.533 57.7493 321.114 58.8741 318.168 58.8741C315.75 58.8741 313.735 58.123 312.122 56.6215C310.926 55.5123 309.732 53.6623 308.536 51.0768L291.108 51.0773ZM245.493 19.014H240.533C237.78 19.014 235.502 18.2634 233.695 16.7624C231.777 15.1507 230.817 12.9961 230.817 10.2995C230.817 8.68781 231.27 7.13826 232.173 5.65032C233.076 4.1639 234.244 3.10729 235.676 2.48151C237.107 1.85624 240.505 1.5441 245.87 1.5441H264.8C269.44 1.5441 272.444 1.8224 273.806 2.37797C275.307 2.98911 276.523 4.03965 277.453 5.52456C278.386 7.013 278.852 8.57619 278.852 10.2162C278.852 12.8011 277.822 15.0532 275.765 16.9715C274.293 18.3336 271.887 19.014 268.553 19.014H264.258V47.3661C264.258 50.4515 263.73 52.841 262.673 54.5365C260.893 57.3725 258.323 58.7897 254.96 58.7897C251.596 58.7897 249.012 57.4968 247.205 54.9118C246.065 53.3001 245.494 50.8551 245.494 47.5752V19.014H245.493ZM195.293 36.9419C197.379 36.9419 199.601 37.8591 201.965 39.694C204.91 42.0022 206.926 43.1538 208.012 43.1538C209.622 43.1538 210.428 42.3214 210.428 40.6537C210.428 39.7365 209.956 38.9587 209.012 38.3177C208.511 37.9844 205.702 36.9167 200.588 35.1075C192.222 32.1619 188.039 26.7127 188.039 18.7629C188.039 12.7607 190.248 8.02061 194.668 4.54624C198.531 1.51733 203.313 0.000610352 209.011 0.000610352C213.93 0.000610352 218.211 1.17591 221.853 3.52347C225.494 5.87205 227.314 8.8959 227.314 12.593C227.314 14.8178 226.626 16.673 225.251 18.1589C223.875 19.6458 222.088 20.3888 219.892 20.3888C217.585 20.3888 215.028 19.2918 212.221 17.0962C210.47 15.7345 209.15 15.0532 208.261 15.0532C206.731 15.0532 205.967 15.8032 205.967 17.3038C205.967 18.7225 207.856 20.015 211.637 21.1817C216.863 22.8222 220.907 24.8233 223.77 27.185C227.578 30.3548 229.483 34.8029 229.483 40.5279C229.483 46.7564 227.342 51.6187 223.061 55.1219C219.087 58.373 213.917 59.9999 207.55 59.9999C201.185 59.9999 195.918 58.3054 191.749 54.9123C188.414 52.2173 186.745 49.0631 186.745 45.4483C186.745 43.03 187.565 41.0158 189.206 39.4031C190.846 37.7915 192.876 36.9697 195.293 36.9419Z" fill="#1C2C54"/>
</svg>
