<svg width="52" height="52" viewBox="0 0 52 52" fill="none" xmlns="http://www.w3.org/2000/svg">
<path fill-rule="evenodd" clip-rule="evenodd" d="M7.54 0C3.37577 0 0 3.37578 0 7.54V44.46C0 48.6242 3.37578 52 7.54 52H44.46C48.6242 52 52 48.6242 52 44.46V7.54C52 3.37577 48.6242 0 44.46 0H7.54ZM21.0937 41.384C21.3123 41.4115 21.5309 41.439 21.7486 41.4711H22.3576C22.3938 41.4654 22.4299 41.4588 22.466 41.4523C22.5383 41.4391 22.6106 41.426 22.6835 41.42C25.8712 41.1638 28.3729 39.7114 30.1674 37.0727C31.2678 35.455 31.7487 33.6377 31.7422 31.6859C31.7346 29.2974 31.7278 26.9093 31.7209 24.5211C31.7175 23.3287 31.7141 22.1363 31.7106 20.9438V20.5594C32.8799 21.4384 34.0987 22.0961 35.4278 22.5429C36.7593 22.9913 38.1224 23.2297 39.5715 23.2143V22.8681C39.5715 22.4917 39.5709 22.1154 39.5703 21.7391C39.5686 20.6788 39.5668 19.6188 39.5788 18.5589C39.5821 18.2548 39.5042 18.1737 39.1961 18.1632C35.6678 18.044 32.5993 15.4491 31.8874 11.9873C31.816 11.6401 31.7722 11.2869 31.7282 10.9317C31.7076 10.766 31.687 10.5998 31.6635 10.4336H26.6432V10.8439C26.6432 11.933 26.6434 13.022 26.6436 14.1111C26.6439 16.2892 26.6443 18.4673 26.6432 20.6454C26.6424 21.8135 26.639 22.9818 26.6355 24.15C26.628 26.6636 26.6206 29.1774 26.64 31.6907C26.6635 34.7324 24.0353 36.7362 21.455 36.3883C18.8909 36.0429 17.1467 33.7439 17.4986 31.1312C17.8262 28.6969 20.1997 26.9518 22.6941 27.3151C22.8654 27.3401 23.0353 27.3739 23.2098 27.4086C23.2955 27.4256 23.3823 27.4429 23.4709 27.4594V22.3588C22.4508 22.178 21.4429 22.2015 20.4414 22.3661C15.2654 23.2151 11.7541 27.8933 12.3915 33.075C12.8699 36.9608 15.8565 40.2855 19.6856 41.1597C20.1481 41.2651 20.6208 41.3245 21.0937 41.384Z" fill="#135CC9"/>
</svg>
