<svg width="52" height="52" viewBox="0 0 52 52" fill="none" xmlns="http://www.w3.org/2000/svg">
<path fill-rule="evenodd" clip-rule="evenodd" d="M7.54 0C3.37577 0 0 3.37578 0 7.54V44.46C0 48.6242 3.37578 52 7.54 52H44.46C48.6242 52 52 48.6242 52 44.46V7.54C52 3.37577 48.6242 0 44.46 0H7.54ZM7.87883 20.1985V30.5979C7.92566 31.0414 7.97249 31.4848 8.02079 31.9297C8.14079 33.0244 8.36763 34.0913 8.85205 35.0894C9.65403 36.7402 11.0341 37.6695 12.7449 38.1685C14.3211 38.6295 15.9411 38.7407 17.5715 38.7407C18.8145 38.7404 20.0575 38.7404 21.3006 38.7405C26.0227 38.7405 30.7448 38.7406 35.4669 38.7232C36.8323 38.7188 38.1904 38.5651 39.5163 38.1846C41.8374 37.5187 43.1838 35.9484 43.655 33.6405C43.8965 32.458 44.0502 31.2404 44.0707 30.0345C44.123 27.0624 44.0974 24.0888 44.0719 21.1166L44.0692 20.8043C44.059 19.5428 43.9565 18.2872 43.5614 17.0725C43.0667 15.549 42.0364 14.5655 40.5525 14.024C39.3905 13.5996 38.1787 13.4211 36.9538 13.3523C35.8254 13.2894 34.6927 13.266 33.5614 13.2645C28.0441 13.2572 22.5268 13.2616 17.0095 13.2689C15.4157 13.2704 13.8279 13.3713 12.2766 13.7665C10.8599 14.128 9.59842 14.7397 8.8257 16.0773C8.33836 16.9203 8.12909 17.8437 8.02079 18.7979C7.98333 19.1199 7.95218 19.4432 7.92103 19.7665C7.90715 19.9105 7.89327 20.0546 7.87883 20.1985ZM21.8209 26.9039C21.8212 26.5435 21.8214 26.1831 21.8214 25.8226C21.8214 25.4654 21.8212 25.1084 21.8209 24.7514C21.8203 23.8592 21.8197 22.9673 21.8229 22.0746C21.8258 20.9448 22.6922 20.4136 23.6946 20.9317C24.7654 21.4861 25.8353 22.0423 26.9051 22.5984C28.2581 23.3017 29.611 24.0049 30.9652 24.7045C31.4306 24.946 31.7467 25.2797 31.7511 25.8226C31.7555 26.3641 31.4467 26.708 30.9813 26.9495C29.6899 27.6209 28.3997 28.2951 27.1094 28.9694C25.9695 29.5651 24.8297 30.1608 23.6888 30.7545C22.6819 31.2785 21.8258 30.7487 21.8229 29.6057C21.8197 28.7047 21.8203 27.8045 21.8209 26.9039Z" fill="#135CC9"/>
</svg>
