<svg width="149" height="104" viewBox="0 0 149 104" fill="none" xmlns="http://www.w3.org/2000/svg">
<path d="M39.709 20.3098H110.195V84.225H39.709V20.3098Z" fill="white"/>
<path d="M0.881836 70.7641C0.881836 56.6191 0.881836 42.4682 0.881836 28.3172C1.07298 26.4117 1.24024 24.5002 1.46125 22.6007C1.90328 18.7061 2.75748 14.9369 4.74661 11.4962C7.90056 6.03652 13.0496 3.53964 18.8319 2.06422C25.1636 0.451406 31.6448 0.0392426 38.1498 0.0332692C60.6694 0.00340229 83.1891 -0.0145179 105.709 0.0153491C110.326 0.0213224 114.95 0.116897 119.555 0.373752C124.555 0.654501 129.501 1.38325 134.244 3.11553C140.301 5.32569 144.506 9.3398 146.525 15.5581C148.138 20.516 148.556 25.6412 148.598 30.7902C148.705 43.3463 148.825 55.9083 148.604 68.4643C148.52 73.3864 147.893 78.3563 146.907 83.1828C144.984 92.6028 139.488 99.0122 130.014 101.73C124.603 103.283 119.059 103.91 113.486 103.928C89.1386 104.018 64.7911 103.994 40.4436 104C33.7892 104 27.1767 103.546 20.7433 101.664C13.7605 99.6275 8.12755 95.8344 4.85414 89.0964C2.87695 85.0226 1.95107 80.668 1.46125 76.1999C1.26413 74.384 1.07298 72.574 0.881836 70.7641ZM57.7902 51.2729C57.7902 56.422 57.7783 61.5651 57.7962 66.7141C57.8082 71.3793 61.3026 73.5417 65.4123 71.4032C75.34 66.2363 85.2499 61.0335 95.1777 55.8725C97.0772 54.8868 98.3376 53.4831 98.3196 51.2729C98.3017 49.0568 97.0115 47.6949 95.1119 46.7093C85.2141 41.5961 75.3341 36.4351 65.4362 31.3099C61.3444 29.1953 57.8082 31.3637 57.7962 35.9751C57.7783 41.0764 57.7902 46.1717 57.7902 51.2729Z" fill="#D7143A"/>
</svg>
